<?xml version="1.0" standalone="no"?>
<!DOCTYPE svg PUBLIC "-//W3C//DTD SVG 1.1//EN" "http://www.w3.org/Graphics/SVG/1.1/DTD/svg11.dtd">
<svg xmlns="http://www.w3.org/2000/svg" viewBox="0 0 299.46 158.82" width="299.4599914550781" height="158.82000732421875"><defs><style>.cls-1{fill:#005236;}.cls-2{fill:#ff992b;}.cls-3{fill:#bb4f07;}.cls-4{fill:#6bc4a6;}</style></defs><g id="Layer_2" data-name="Layer 2"><g id="Layer_1-2" data-name="Layer 1"><path class="cls-1" d="M63.16,103.11V57h6.11v46.13Z"/><path class="cls-1" d="M79.27,103.11V63.8h6v4.29a6.83,6.83,0,0,1,2.23-3.34,6.14,6.14,0,0,1,4.12-1.45,5.7,5.7,0,0,1,4.81,2.17c1.1,1.45,1.66,3.6,1.66,6.45v31.19h-6v-31a4.26,4.26,0,0,0-.86-2.9,3,3,0,0,0-2.28-1A3.54,3.54,0,0,0,87,68.8a3.33,3.33,0,0,0-1.28,1.54,6.11,6.11,0,0,0-.45,2.5v30.27Z"/><path class="cls-1" d="M111.22,103.11,105.54,63.8h5.58L114,85.52l1,9.36h.34l.84-9.38,2.48-21.7h5.56l-5.71,39.31Z"/><path class="cls-1" d="M140.3,103.58a9.8,9.8,0,0,1-4.68-1,6.65,6.65,0,0,1-2.75-2.76,12.84,12.84,0,0,1-1.31-4.32,39.53,39.53,0,0,1-.35-5.58V75.72a24.51,24.51,0,0,1,.47-5,11.37,11.37,0,0,1,1.53-3.93,7,7,0,0,1,2.87-2.54,10,10,0,0,1,4.48-.9,9.66,9.66,0,0,1,4.46.91,6.34,6.34,0,0,1,2.66,2.57,11.8,11.8,0,0,1,1.29,4,32.45,32.45,0,0,1,.37,5.15v7.84H137.29v7.78a22,22,0,0,0,.48,5.22,2.4,2.4,0,0,0,2.63,1.86,2.34,2.34,0,0,0,2-.88,5,5,0,0,0,.74-2.46c.09-1.06.13-2.29.13-3.69V88.3h5.95v1.86a44.82,44.82,0,0,1-.31,5.58,12.76,12.76,0,0,1-1.22,4.24,6.14,6.14,0,0,1-2.69,2.67A10.29,10.29,0,0,1,140.3,103.58Zm-3-23.64h6.05v-5a31.93,31.93,0,0,0-.17-3.68A4.63,4.63,0,0,0,142.4,69a2.19,2.19,0,0,0-1.86-.76,2.63,2.63,0,0,0-2.18.89,4.84,4.84,0,0,0-.9,2.44,26.89,26.89,0,0,0-.2,3.56Z"/><path class="cls-1" d="M165.94,103.63q-4.42,0-6.66-2.67t-2.22-8.78V89.4h5.76v3A12,12,0,0,0,163.5,97a2.31,2.31,0,0,0,2.23,1.57,2.61,2.61,0,0,0,2.26-1,6.43,6.43,0,0,0,.73-3.56,9.06,9.06,0,0,0-.41-2.67,10.21,10.21,0,0,0-1.24-2.59,14,14,0,0,0-2.15-2.52l-3.12-2.88a16.74,16.74,0,0,1-3.72-4.93,13,13,0,0,1-1.26-5.69c0-3.23.77-5.61,2.29-7.13a10.29,10.29,0,0,1,11.17-1.14,7,7,0,0,1,2.82,3.74,21.11,21.11,0,0,1,.94,7v2h-5.56V74.54a12.91,12.91,0,0,0-.63-4.57,2.2,2.2,0,0,0-2.17-1.59,2.77,2.77,0,0,0-2.25.87,5.25,5.25,0,0,0-.82,3.12A8,8,0,0,0,164,77a11.66,11.66,0,0,0,1.88,2.2l3.23,3a18.51,18.51,0,0,1,4.23,5.5,14.13,14.13,0,0,1,1.4,6.19c0,3.11-.71,5.51-2.13,7.22S169,103.63,165.94,103.63Z"/><path class="cls-1" d="M189.59,103.34a9.19,9.19,0,0,1-3.81-.61,3.27,3.27,0,0,1-1.77-2,11,11,0,0,1-.47-3.56V68.75h-3.43V64.32h3.43V57h6v7.34h4.08v4.43h-4.08V96.43a3,3,0,0,0,.27,1.44,1.63,1.63,0,0,0,1.17.63,17.87,17.87,0,0,0,2.72.15v4.69Z"/><path class="cls-1" d="M92,158.29V112.17h6.08v41h8.68v5.11Z"/><path class="cls-1" d="M122.24,158.76a10.13,10.13,0,0,1-4.6-.91,6.81,6.81,0,0,1-2.8-2.65,12.25,12.25,0,0,1-1.42-4.18,34,34,0,0,1-.4-5.52V131.27a24.44,24.44,0,0,1,.81-6.58,8.74,8.74,0,0,1,2.83-4.53,8.59,8.59,0,0,1,5.58-1.65,9.54,9.54,0,0,1,4.49.94,7.1,7.1,0,0,1,2.8,2.66,12.13,12.13,0,0,1,1.44,4,29,29,0,0,1,.42,5.11V145.5A36,36,0,0,1,131,151a12.07,12.07,0,0,1-1.36,4.2,6.65,6.65,0,0,1-2.78,2.68A10,10,0,0,1,122.24,158.76Zm0-4.95a2.34,2.34,0,0,0,2-.85,5.05,5.05,0,0,0,.88-2.37,24.35,24.35,0,0,0,.23-3.52V130.12a22.31,22.31,0,0,0-.24-3.51,4.91,4.91,0,0,0-.9-2.32,2.38,2.38,0,0,0-2-.83,2.45,2.45,0,0,0-2,.83,4.62,4.62,0,0,0-.91,2.32,23.84,23.84,0,0,0-.22,3.51v16.95a24.46,24.46,0,0,0,.22,3.52,4.85,4.85,0,0,0,.91,2.37A2.4,2.4,0,0,0,122.24,153.81Z"/><path class="cls-1" d="M147.31,158.82a6.5,6.5,0,0,1-3.51-.95,6.19,6.19,0,0,1-2.38-2.93,13.35,13.35,0,0,1-.85-5.14V119h6v30a7,7,0,0,0,.71,3.48,2.61,2.61,0,0,0,2.46,1.22,2.91,2.91,0,0,0,2.71-1.39,6.49,6.49,0,0,0,.83-3.36V119h6v39.31h-6v-4a7.91,7.91,0,0,1-2.1,3.22A5.51,5.51,0,0,1,147.31,158.82Z"/><path class="cls-1" d="M169.33,115.36V110h6.06v5.4Zm0,42.93V119h6v39.31Z"/><path class="cls-1" d="M193.19,158.82q-4.42,0-6.65-2.68t-2.23-8.78v-2.77h5.76v3a11.79,11.79,0,0,0,.69,4.56,2.3,2.3,0,0,0,2.22,1.57,2.61,2.61,0,0,0,2.26-1,6.3,6.3,0,0,0,.73-3.55,9.07,9.07,0,0,0-.4-2.68,10.79,10.79,0,0,0-1.25-2.59,14.35,14.35,0,0,0-2.15-2.52l-3.12-2.88a16.74,16.74,0,0,1-3.72-4.93,12.91,12.91,0,0,1-1.26-5.68c0-3.24.77-5.61,2.3-7.13a10.28,10.28,0,0,1,11.16-1.14,6.93,6.93,0,0,1,2.82,3.73,21.14,21.14,0,0,1,.94,7v2h-5.55v-2.68a12.91,12.91,0,0,0-.63-4.57,2.21,2.21,0,0,0-2.18-1.58,2.78,2.78,0,0,0-2.25.86,5.29,5.29,0,0,0-.82,3.12,8.17,8.17,0,0,0,.31,2.33,8,8,0,0,0,1.06,2.31,12.44,12.44,0,0,0,1.88,2.2l3.23,3a18.22,18.22,0,0,1,4.23,5.51A14,14,0,0,1,202,149q0,4.67-2.13,7.22C198.41,158,196.2,158.82,193.19,158.82Z"/><path class="cls-1" d="M210,115.36V110H216v5.4Zm0,42.93V119h6v39.31Z"/><path class="cls-1" d="M232.27,158.66a5.62,5.62,0,0,1-5.35-2.84,16.22,16.22,0,0,1-1.6-7.72v-3.28a10.62,10.62,0,0,1,.89-4.65,7.86,7.86,0,0,1,2.54-3,19.4,19.4,0,0,1,3.91-2.11q2.25-.93,5-2v-3.2a33.4,33.4,0,0,0-.16-3.71,3.53,3.53,0,0,0-.76-2,2.47,2.47,0,0,0-1.91-.66,2.54,2.54,0,0,0-1.93.67,3.74,3.74,0,0,0-.85,2.07,25.14,25.14,0,0,0-.21,3.6v1.55h-6V130.2a26.82,26.82,0,0,1,.38-4.75,10.11,10.11,0,0,1,1.36-3.69,6.54,6.54,0,0,1,2.78-2.4,10.82,10.82,0,0,1,4.63-.85,10.1,10.1,0,0,1,4.32.8,6.23,6.23,0,0,1,2.69,2.36,10.7,10.7,0,0,1,1.38,3.86,30.24,30.24,0,0,1,.41,5.35v27.41h-6.08v-3.61a5.56,5.56,0,0,1-1,1.84,5.65,5.65,0,0,1-1.83,1.54A5.5,5.5,0,0,1,232.27,158.66Zm1.88-4.77a3.16,3.16,0,0,0,2.3-.92,4.31,4.31,0,0,0,1.19-1.86V136.75c-1.23.56-2.24,1.06-3,1.51a7.29,7.29,0,0,0-1.9,1.42,4.27,4.27,0,0,0-1,1.83,9.8,9.8,0,0,0-.29,2.63v4a12.36,12.36,0,0,0,.57,4.41A2.15,2.15,0,0,0,234.15,153.89Z"/><path class="cls-1" d="M253.16,158.29V119h6v4.3a6.72,6.72,0,0,1,2.23-3.34,6.14,6.14,0,0,1,4.11-1.46,5.69,5.69,0,0,1,4.81,2.18q1.67,2.18,1.67,6.44v31.19h-6v-31a4.18,4.18,0,0,0-.87-2.89,2.9,2.9,0,0,0-2.27-1,3.55,3.55,0,0,0-1.92.53,3.29,3.29,0,0,0-1.28,1.53,6.14,6.14,0,0,0-.45,2.5v30.27Z"/><path class="cls-1" d="M288,158.66a5.6,5.6,0,0,1-5.34-2.84,16.22,16.22,0,0,1-1.6-7.72v-3.28a10.47,10.47,0,0,1,.89-4.65,7.77,7.77,0,0,1,2.54-3,19.13,19.13,0,0,1,3.91-2.11q2.25-.93,5-2v-3.2a36,36,0,0,0-.16-3.71,3.6,3.6,0,0,0-.76-2,2.47,2.47,0,0,0-1.91-.66,2.54,2.54,0,0,0-1.93.67,3.74,3.74,0,0,0-.85,2.07,25.14,25.14,0,0,0-.21,3.6v1.55h-6V130.2a26.82,26.82,0,0,1,.38-4.75,9.94,9.94,0,0,1,1.36-3.69,6.48,6.48,0,0,1,2.78-2.4,10.77,10.77,0,0,1,4.62-.85,10.12,10.12,0,0,1,4.33.8,6.2,6.2,0,0,1,2.68,2.36,10.52,10.52,0,0,1,1.39,3.86,31.22,31.22,0,0,1,.41,5.35v27.41h-6.08v-3.61a5.76,5.76,0,0,1-1,1.84,5.69,5.69,0,0,1-1.84,1.54A5.48,5.48,0,0,1,288,158.66Zm1.89-4.77a3.14,3.14,0,0,0,2.29-.92,4.34,4.34,0,0,0,1.2-1.86V136.75c-1.23.56-2.24,1.06-3,1.51a7.29,7.29,0,0,0-1.9,1.42,4.29,4.29,0,0,0-1,1.83,10.23,10.23,0,0,0-.29,2.63v4a12.32,12.32,0,0,0,.58,4.41A2.14,2.14,0,0,0,289.84,153.89Z"/><path class="cls-1" d="M55.13,47.75A2.12,2.12,0,1,0,52.67,46,2.12,2.12,0,0,0,55.13,47.75Z"/><path class="cls-1" d="M50.56,50.72a2.12,2.12,0,1,0-3,.51A2.13,2.13,0,0,0,50.56,50.72Z"/><path class="cls-1" d="M49.43,56A2.12,2.12,0,1,0,47.7,58.5,2.12,2.12,0,0,0,49.43,56Z"/><path class="cls-1" d="M52.4,60.61a2.12,2.12,0,1,0,.51,3A2.13,2.13,0,0,0,52.4,60.61Z"/><path class="cls-1" d="M60.45,48.88a2.13,2.13,0,1,0-.51-3A2.12,2.12,0,0,0,60.45,48.88Z"/><circle class="cls-2" cx="23.12" cy="35.47" r="7.24" transform="translate(-7.62 6.36) rotate(-13.46)"/><path class="cls-2" d="M38.93,20.46a7.24,7.24,0,1,0,5.36-8.73A7.25,7.25,0,0,0,38.93,20.46Z"/><circle class="cls-2" cx="73.93" cy="23.12" r="7.24" transform="translate(-1.56 40.46) rotate(-30.3)"/><path class="cls-2" d="M92.32,53a7.24,7.24,0,1,0-8.73-5.35A7.24,7.24,0,0,0,92.32,53Z"/><circle class="cls-2" cx="35.47" cy="86.28" r="7.24" transform="translate(-19.11 10.62) rotate(-13.46)"/><circle class="cls-2" cx="18.77" cy="63.43" r="7.24" transform="translate(-39.35 31.85) rotate(-45)"/><path class="cls-3" d="M42.92,6a3.06,3.06,0,1,0-3.68-2.27A3.07,3.07,0,0,0,42.92,6Z"/><circle class="cls-3" cx="9.35" cy="27.02" r="3.06" transform="translate(-6.03 2.92) rotate(-13.46)"/><path class="cls-3" d="M2.35,64.22A3.06,3.06,0,1,0,6,66.48,3.05,3.05,0,0,0,2.35,64.22Z"/><path class="cls-3" d="M28.62,97.44a3.06,3.06,0,1,0,1,4.21A3.07,3.07,0,0,0,28.62,97.44Z"/><path class="cls-3" d="M107.46,52.44a3.06,3.06,0,1,0-3.37-2.71A3.06,3.06,0,0,0,107.46,52.44Z"/><path class="cls-3" d="M80.78,12a3.06,3.06,0,1,0-1-4.21A3.07,3.07,0,0,0,80.78,12Z"/><circle class="cls-3" cx="26.7" cy="16.1" r="4.89" transform="translate(-4.39 13.73) rotate(-26.74)"/><path class="cls-3" d="M10.16,43a4.89,4.89,0,1,0,1.6,6.72A4.89,4.89,0,0,0,10.16,43Z"/><circle class="cls-3" cx="16.1" cy="82.71" r="4.89" transform="translate(-53.77 35.61) rotate(-45)"/><circle class="cls-3" cx="47.21" cy="101.8" r="4.89" transform="translate(-64.61 92.3) rotate(-60.26)"/><circle class="cls-3" cx="93.31" cy="26.7" r="4.89" transform="translate(21.74 92.25) rotate(-58.46)"/><path class="cls-3" d="M59.64,11.76A4.88,4.88,0,1,0,58,5,4.88,4.88,0,0,0,59.64,11.76Z"/><path class="cls-4" d="M55.49,37.86a4.89,4.89,0,1,0-1.61-6.72A4.89,4.89,0,0,0,55.49,37.86Z"/><path class="cls-4" d="M43.35,42.29a4.89,4.89,0,1,0-5.89-3.62A4.89,4.89,0,0,0,43.35,42.29Z"/><path class="cls-4" d="M37.9,54a4.89,4.89,0,1,0-6.72,1.61A4.89,4.89,0,0,0,37.9,54Z"/><path class="cls-4" d="M42.33,66.14A4.88,4.88,0,1,0,38.71,72,4.9,4.9,0,0,0,42.33,66.14Z"/><circle class="cls-4" cx="51.49" cy="75.75" r="4.89" transform="translate(-39.83 82.89) rotate(-60.26)"/><path class="cls-4" d="M67.2,43.31a4.89,4.89,0,1,0,3.62-5.89A4.89,4.89,0,0,0,67.2,43.31Z"/><path class="cls-4" d="M210.14,60.18v-3.8H214v3.8Zm0,42.93V63.8h3.93v39.31Z"/><path class="cls-4" d="M225.19,103.11V63.8h3.91v3.85a6.19,6.19,0,0,1,2.28-3,6.51,6.51,0,0,1,4.06-1.33,5.23,5.23,0,0,1,4.17,1.92q1.62,1.94,1.62,6.15v31.74h-3.9v-32a4.24,4.24,0,0,0-1.12-3.36,4,4,0,0,0-2.68-.94,6.26,6.26,0,0,0-2.1.36,3.53,3.53,0,0,0-1.68,1.31,4.76,4.76,0,0,0-.65,2.7v32Z"/></g></g></svg>